<svg height="512pt" viewBox="-47 0 512 512" width="512pt" xmlns="http://www.w3.org/2000/svg"><path d="m345.167969 133.03125c-36.414063 0-66.054688-29.375-66.296875-65.574219-21.828125-8.101562-45.445313-12.542969-70.097656-12.542969-111.160157 0-201.273438 90.027344-201.273438 201.085938 0 61.230469 27.398438 116.058594 70.609375 152.941406h183.546875c2.570312 0 4.660156 2.085938 4.660156 4.65625v35.132813c83.117188-24.734375 143.730469-101.652344 143.730469-192.730469 0-47.777344-16.691406-91.65625-44.550781-126.15625-6.40625 2.0625-13.238282 3.1875-20.328125 3.1875zm0 0" fill="#64cbff"/><path d="m140.914062 153.738281c15.792969 0 30.644532 6.109375 41.8125 17.199219l26.046876 25.859375 26.042968-25.859375c11.175782-11.089844 26.023438-17.195312 41.816406-17.195312 4.882813 0 9.671876.585937 14.292969 1.71875-16.398437-60.105469-47.046875-100.546876-82.152343-100.546876-35.109376 0-65.757813 40.441407-82.15625 100.546876 4.621093-1.132813 9.414062-1.722657 14.296874-1.722657zm0 0" fill="#a2f9f9"/><path d="m208.773438 358.261719c-2.976563 0-5.78125-1.152344-7.890626-3.246094l-86.757812-86.140625c1.671875 56.011719 14.152344 105.789062 33.074219 140.066406h114.453125c2.570312 0 4.660156 2.085938 4.660156 4.65625v2.242188c21.164062-34.308594 35.320312-87.070313 37.105469-146.960938l-86.761719 86.136719c-2.105469 2.09375-4.902344 3.246094-7.882812 3.246094zm0 0" fill="#a2f9f9"/><path d="m372.742188 127.027344c-4.847657 2.214844-10.003907 3.867187-15.390626 4.867187 3.601563 4.296875 7.027344 8.746094 10.25 13.34375h-71.796874c-3.75-12.355469-8.15625-23.96875-13.183594-34.625-8.523438-18.074219-18.433594-32.519531-29.292969-43.023437 8.96875 2.113281 17.691406 4.859375 26.132813 8.175781-.382813-2.867187-.601563-5.78125-.601563-8.75 0-2.484375.152344-4.933594.421875-7.34375-22.039062-7.925781-45.773438-12.257813-70.507812-12.257813-115.117188 0-208.773438 93.570313-208.773438 208.585938 0 60.367188 25.8125 114.816406 66.976562 152.941406h23.164063c-15.414063-11.960937-28.988281-26.1875-40.199219-42.183594h71.796875c3.753907 12.359376 8.15625 23.972657 13.183594 34.628907 1.226563 2.597656 2.480469 5.109375 3.761719 7.554687h17.117187c-2.527343-4.332031-4.964843-8.980468-7.3125-13.953125-4.128906-8.753906-7.8125-18.210937-11.042969-28.226562h63.828126v42.179687h15v-42.179687h63.824218c-3.226562 10.019531-6.914062 19.472656-11.042968 28.226562-2.34375 4.976563-4.789063 9.628907-7.316407 13.960938 2.53125.046875 4.578125 2.109375 4.578125 4.648437v15.726563c5.847656-8.03125 11.316406-17.355469 16.304688-27.933594 5.027344-10.660156 9.433594-22.273437 13.183594-34.628906h71.796874c-24.367187 34.769531-59.863281 61.207031-101.289062 74.101562v15.660157c87.226562-25.019532 151.234375-105.445313 151.234375-200.523438 0-48.644531-16.757813-93.453125-44.804687-128.972656zm-156.46875-63.863282c19.539062 3.84375 38.050781 22.613282 52.78125 53.847657 4.128906 8.753906 7.816406 18.210937 11.042968 28.230469h-63.824218zm-15 0v82.074219h-63.828126c3.230469-10.015625 6.914063-19.472656 11.042969-28.226562 14.734375-31.234375 33.246094-50.003907 52.785157-53.847657zm-37.058594 4.425782c-10.859375 10.507812-20.769532 24.949218-29.292969 43.023437-5.027344 10.65625-9.429687 22.269531-13.183594 34.625h-71.792969c26.875-38.347656 67.296876-66.5625 114.269532-77.648437zm-123.796875 284.171875c-15-26.21875-24.03125-56.257813-25.257813-88.261719h91.335938c.527344 31.195312 4.34375 61.207031 11.101562 88.261719zm255.1875-75.125c-1.292969 26.648437-5.078125 52.109375-11.128907 75.125h-64.539062l-3.28125 3.253906c-2.105469 2.09375-4.90625 3.246094-7.882812 3.246094-2.976563 0-5.78125-1.152344-7.890626-3.246094l-3.28125-3.253906h-64.535156c-6.050781-23.019531-9.835937-48.480469-11.128906-75.128907l-22.84375-22.679687c-1.738281-1.730469-3.34375-3.558594-4.835938-5.453125h-79.097656c1.226563-32.003906 10.257813-62.042969 25.257813-88.261719h73.414062c8.273438-4.238281 17.5-6.5 27.082031-6.5 9.574219 0 18.800782 2.261719 27.074219 6.5h33.285157v29.113281l7.5 7.445313 7.5-7.445313v-29.113281h33.285156c8.273437-4.238281 17.5-6.5 27.074218-6.5 9.578126 0 18.800782 2.261719 27.078126 6.5h73.417968c15 26.21875 24.03125 56.257813 25.257813 88.261719h-79.097657c-1.492187 1.894531-3.097656 3.722656-4.835937 5.453125zm81.523437 75.125h-77.183594c6.757813-27.054688 10.574219-57.066407 11.101563-88.261719h91.339844c-1.226563 32.003906-10.257813 62.042969-25.257813 88.261719zm0 0" fill="#046699"/><path d="m208.773438 359.261719c-3.109376 0-6.21875-1.179688-8.59375-3.535157l-101.789063-101.066406c-23.449219-23.277344-23.449219-61.152344 0-84.433594 11.351563-11.273437 26.453125-17.488281 42.523437-17.488281 16.054688 0 31.160157 6.214844 42.519532 17.488281l25.339844 25.164063 25.339843-25.164063c11.359375-11.273437 26.460938-17.484374 42.519531-17.484374 16.0625 0 31.164063 6.210937 42.523438 17.484374 23.445312 23.28125 23.445312 61.15625 0 84.4375l-101.796875 101.0625c-2.371094 2.355469-5.480469 3.535157-8.585937 3.535157zm0 0" fill="#fb8276"/><g fill="#960b15"><path d="m159.578125 243.089844c-4.140625 0-7.5-3.359375-7.5-7.5v-20.105469c0-4.144531 3.359375-7.5 7.5-7.5 4.144531 0 7.5 3.355469 7.5 7.5v20.105469c0 4.140625-3.355469 7.5-7.5 7.5zm0 0"/><path d="m257.964844 243.089844c-4.140625 0-7.5-3.359375-7.5-7.5v-20.105469c0-4.144531 3.359375-7.5 7.5-7.5 4.144531 0 7.5 3.355469 7.5 7.5v20.105469c0 4.140625-3.355469 7.5-7.5 7.5zm0 0"/><path d="m208.773438 302.941406c-16.898438 0-30.648438-13.675781-30.648438-30.480468 0-4.144532 3.359375-7.5 7.5-7.5 4.144531 0 7.5 3.355468 7.5 7.5 0 8.535156 7.019531 15.480468 15.648438 15.480468 8.628906 0 15.648437-6.945312 15.648437-15.480468 0-4.144532 3.359375-7.5 7.5-7.5s7.5 3.355468 7.5 7.5c0 16.808593-13.75 30.480468-30.648437 30.480468zm0 0"/></g><path d="m412.472656 67.015625c0-37.011719-30.132812-67.015625-67.304687-67.015625s-67.308594 30.003906-67.308594 67.015625 30.136719 67.015625 67.308594 67.015625 67.304687-30.003906 67.304687-67.015625zm0 0" fill="#fcdb67"/><path d="m391.292969 67.015625c0-25.367187-20.652344-45.929687-46.128907-45.929687-25.472656 0-46.125 20.5625-46.125 45.929687s20.652344 45.929687 46.125 45.929687c25.476563 0 46.128907-20.5625 46.128907-45.929687zm0 0" fill="#ffc502"/><path d="m366.246094 76.328125c0-9.269531-7.558594-16.8125-16.847656-16.8125h-8.460938c-1.023438 0-1.851562-.8125-1.851562-1.816406 0-.996094.828124-1.808594 1.851562-1.808594h13.359375c4.140625 0 7.5-3.355469 7.5-7.5 0-4.140625-3.359375-7.5-7.5-7.5h-1.628906v-1.8125c0-4.140625-3.359375-7.5-7.5-7.5s-7.5 3.359375-7.5 7.5v2.136719c-7.730469 1.523437-13.582031 8.332031-13.582031 16.484375 0 9.273437 7.558593 16.816406 16.851562 16.816406h8.460938c1.019531 0 1.847656.8125 1.847656 1.8125 0 .996094-.828125 1.808594-1.847656 1.808594h-15.585938c-4.140625 0-7.5 3.355469-7.5 7.5s3.359375 7.5 7.5 7.5h3.855469v1.8125c0 4.144531 3.359375 7.5 7.5 7.5s7.5-3.355469 7.5-7.5v-2.136719c7.730469-1.523438 13.578125-8.332031 13.578125-16.484375zm0 0" fill="#b2762f"/><path d="m261.65625 407.941406h-246.808594c-3.113281 0-5.660156 2.542969-5.660156 5.65625v92.746094c0 3.109375 2.546875 5.65625 5.660156 5.65625h246.808594c3.113281 0 5.660156-2.546875 5.660156-5.65625v-92.746094c0-3.113281-2.546875-5.65625-5.660156-5.65625zm0 0" fill="#368c0e"/><path d="m38.042969 486.265625c-1.699219 0-3.09375-1.394531-3.09375-3.09375v-46.40625c0-1.699219 1.394531-3.089844 3.09375-3.089844h200.421875c1.699218 0 3.09375 1.390625 3.09375 3.089844v46.40625c0 1.699219-1.394532 3.09375-3.09375 3.09375zm0 0" fill="#5dc647"/><path d="m168.820312 459.972656c0-16.867187-13.6875-30.539062-30.566406-30.539062-16.882812 0-30.566406 13.671875-30.566406 30.539062 0 16.863282 13.683594 30.539063 30.566406 30.539063 16.878906 0 30.566406-13.675781 30.566406-30.539063zm0 0" fill="#fff"/><path d="m75.914062 467.46875c-1.972656 0-3.902343-.796875-5.300781-2.199219-1.398437-1.390625-2.199219-3.328125-2.199219-5.300781 0-1.96875.800782-3.910156 2.199219-5.296875 1.398438-1.402344 3.328125-2.203125 5.300781-2.203125 1.96875 0 3.910157.800781 5.308594 2.203125 1.390625 1.386719 2.191406 3.328125 2.191406 5.296875 0 1.972656-.800781 3.910156-2.191406 5.300781-1.398437 1.402344-3.339844 2.199219-5.308594 2.199219zm0 0" fill="#368c0e"/><path d="m200.59375 467.46875c-1.980469 0-3.910156-.796875-5.3125-2.199219-1.386719-1.390625-2.1875-3.328125-2.1875-5.300781 0-1.96875.800781-3.910156 2.1875-5.296875 1.402344-1.402344 3.332031-2.203125 5.3125-2.203125 1.96875 0 3.910156.800781 5.300781 2.203125 1.398438 1.386719 2.199219 3.328125 2.199219 5.296875 0 1.972656-.800781 3.910156-2.199219 5.300781-1.402343 1.402344-3.332031 2.199219-5.300781 2.199219zm0 0" fill="#368c0e"/></svg>