<?xml version="1.0" encoding="iso-8859-1"?>
<!-- Generator: Adobe Illustrator 19.0.0, SVG Export Plug-In . SVG Version: 6.00 Build 0)  -->
<svg version="1.1" id="Capa_1" xmlns="http://www.w3.org/2000/svg" xmlns:xlink="http://www.w3.org/1999/xlink" x="0px" y="0px"
	 viewBox="0 0 512 512" style="enable-background:new 0 0 512 512;" xml:space="preserve">
<path style="fill:#6D7F84;" d="M326.237,36.115H53.099V18.057C53.099,8.084,61.184,0,71.156,0h255.081
	c9.973,0,18.057,8.085,18.057,18.057l0,0C344.295,28.03,336.21,36.115,326.237,36.115z"/>
<path style="fill:#829399;" d="M467.49,63.288H194.351V45.23c0-9.973,8.085-18.057,18.057-18.057h255.081
	c9.973,0,18.057,8.085,18.057,18.057l0,0C485.547,55.203,477.463,63.288,467.49,63.288z"/>
<polygon style="fill:#C51200;" points="129.968,397.623 30.852,397.623 31.447,350.498 35.1,59.047 125.72,59.047 "/>
<polygon style="fill:#AA0A02;" points="67.426,59.047 67.426,350.498 31.447,350.498 35.1,59.047 "/>
<g>
	<polygon style="fill:#E9EAEF;" points="129.123,332.419 31.708,332.419 32.397,274.657 32.407,273.749 32.554,261.61 
		128.267,261.61 	"/>
	<polygon style="fill:#E9EAEF;" points="127.338,190.802 33.493,190.802 34.338,119.991 126.482,119.991 	"/>
</g>
<g>
	<polygon style="fill:#D6D6D8;" points="67.426,119.991 67.426,190.802 33.493,190.802 34.338,119.991 	"/>
	<polygon style="fill:#D6D6D8;" points="67.426,261.61 67.426,332.419 31.708,332.419 32.397,274.657 32.407,273.749 32.564,261.61 
			"/>
</g>
<polygon style="fill:#E9EAEF;" points="173.503,423.717 272.619,423.717 268.369,85.142 177.753,85.142 "/>
<polygon style="fill:#C51200;" points="176.137,216.9 269.983,216.9 269.133,146.091 176.988,146.091 "/>
<polygon style="fill:#D6D6D8;" points="210.078,85.142 210.078,376.593 174.1,376.593 177.753,85.142 "/>
<polygon style="fill:#AA0A02;" points="210.078,146.088 210.078,216.897 176.146,216.897 176.991,146.088 "/>
<polygon style="fill:#CBD0D8;" points="409.667,199.117 409.667,301.173 307.611,199.117 307.611,301.173 205.556,199.117 
	205.556,301.173 0.277,301.173 0.277,512 511.723,512 511.723,301.173 "/>
<g>
	<rect x="406.129" y="346.771" style="fill:#A0D9F2;" width="61.06" height="123.676"/>
	<rect x="219.044" y="346.771" style="fill:#A0D9F2;" width="61.06" height="123.676"/>
	<rect x="312.587" y="346.771" style="fill:#A0D9F2;" width="61.06" height="123.676"/>
</g>
<g>
	<path style="fill:#525C66;" d="M467.188,476.713h-61.057c-3.458,0-6.263-2.805-6.263-6.263v-123.68
		c0-3.458,2.805-6.263,6.263-6.263h61.057c3.458,0,6.263,2.805,6.263,6.263v123.68C473.451,473.909,470.646,476.713,467.188,476.713
		z M412.394,464.188h48.532V353.033h-48.532V464.188z"/>
	<rect x="430.397" y="346.771" style="fill:#525C66;" width="12.525" height="123.676"/>
	<rect x="406.129" y="402.351" style="fill:#525C66;" width="61.06" height="12.525"/>
	<path style="fill:#525C66;" d="M280.103,476.713h-61.057c-3.458,0-6.263-2.805-6.263-6.263v-123.68
		c0-3.458,2.805-6.263,6.263-6.263h61.057c3.458,0,6.263,2.805,6.263,6.263v123.68C286.365,473.909,283.561,476.713,280.103,476.713
		z M225.308,464.188h48.532V353.033h-48.532V464.188z"/>
	<rect x="243.312" y="346.771" style="fill:#525C66;" width="12.525" height="123.676"/>
	<rect x="219.044" y="402.351" style="fill:#525C66;" width="61.06" height="12.525"/>
	<path style="fill:#525C66;" d="M373.646,476.713h-61.057c-3.458,0-6.263-2.805-6.263-6.263v-123.68
		c0-3.458,2.805-6.263,6.263-6.263h61.057c3.458,0,6.263,2.805,6.263,6.263v123.68C379.909,473.909,377.104,476.713,373.646,476.713
		z M318.851,464.188h48.532V353.033h-48.532V464.188z"/>
	<rect x="336.854" y="346.771" style="fill:#525C66;" width="12.525" height="123.676"/>
</g>
<rect x="35.874" y="346.771" style="fill:#C51200;" width="137.318" height="165.228"/>
<g>
	<rect x="312.587" y="402.351" style="fill:#525C66;" width="61.06" height="12.525"/>
	<path style="fill:#525C66;" d="M179.454,512h-12.525V353.033H42.136V512H29.611V346.771c0-3.458,2.805-6.263,6.263-6.263h137.318
		c3.458,0,6.263,2.805,6.263,6.263V512z"/>
	<rect x="100.065" y="346.771" style="fill:#525C66;" width="12.525" height="165.228"/>
</g>
<g>
</g>
<g>
</g>
<g>
</g>
<g>
</g>
<g>
</g>
<g>
</g>
<g>
</g>
<g>
</g>
<g>
</g>
<g>
</g>
<g>
</g>
<g>
</g>
<g>
</g>
<g>
</g>
<g>
</g>
</svg>
