<svg id="icons" enable-background="new 0 0 64 64" height="512" viewBox="0 0 64 64" width="512" xmlns="http://www.w3.org/2000/svg"><path d="m59 17.502h-3-9-29-9-4c-2.2 0-4 1.789-4 4v26 6c0 2.199 1.8 4 4 4h54c2.2 0 4-1.801 4-4v-6-26c0-2.211-1.8-4-4-4z" fill="#e6e9ed"/><path d="m32 24.502c-7.18 0-13 5.82-13 13 0 7.17 5.82 13 13 13s13-5.83 13-13c0-7.18-5.82-13-13-13z" fill="#ed5565"/><path d="m47 11.502h9v6h-9z" fill="#656d78"/><path d="m9 11.502h9v6h-9z" fill="#656d78"/><g fill="#ccd1d9"><path d="m9 11.502v6h-4c-2.2 0-4 1.789-4 4v-6c0-2.201 1.8-4 4-4z"/><path d="m47 17.502h-29v-6h5v3h3v-3h11.92.08v3h3v-3h6z"/><path d="m63 15.502v6c0-2.211-1.8-4-4-4h-3v-6h3c2.2 0 4 1.799 4 4z"/></g><path d="m37 35.502c1.1 0 2 .9 2 2 0 1.109-.9 2-2 2h-3v3c0 1.109-.9 2-2 2-1.11 0-2-.891-2-2v-3h-.01-2.99c-1.11 0-2-.891-2-2 0-1.031.78-1.891 1.79-1.99h.21 2.99.01v-3c0-1.109.89-2 2-2 1.1 0 2 .891 2 2v3h.01 2.99z" fill="#e6e9ed"/><path d="m15 15.504h-3c-.553 0-1-.447-1-1s.447-1 1-1h3c.553 0 1 .447 1 1s-.447 1-1 1z" fill="#545c66"/><path d="m53.002 15.504h-3c-.553 0-1-.447-1-1s.447-1 1-1h3c.553 0 1 .447 1 1s-.447 1-1 1z" fill="#545c66"/><path d="m27 15.504h-5c-.553 0-1-.447-1-1s.447-1 1-1h5c.553 0 1 .447 1 1s-.447 1-1 1z" fill="#aab2bd"/><path d="m42 15.498h-5c-.553 0-1-.447-1-1s.447-1 1-1h5c.553 0 1 .447 1 1s-.447 1-1 1z" fill="#aab2bd"/><path d="m41 12.498v3h-3v-3-2h3z" fill="#e6e9ed"/><path d="m41 8.498v2h-3-12-3v-2c0-1.109.89-2 2-2h14c1.11 0 2 .891 2 2z" fill="#656d78"/><path d="m26 12.498v3h-3v-3-2h3z" fill="#e6e9ed"/></svg>